# Alias OBJ Model File
# Exported from SketchUp, (c) 2000-2012 Trimble Navigation Limited
# File units = inches

mtllib a78fe62a-5f77-450b-a089-e0cda4e2be12.mtl

g Mesh1 Model

usemtl Katherine_Sleeve
v 18.4831 19.2019 -0
vt 0 0.126433
vn 1 0 -0
v 18.4831 142.214 -0
vt 0 0.93639
v 18.4831 142.214 11.875
vt -0.131944 0.93639
v 18.4831 19.2019 11.875
vt -0.131944 0.126433
f 1/1/1 2/2/1 3/3/1 4/4/1 

usemtl Katherine_Skin2
vt -18.4831 0
vn 0 -1 -0
v 83.5361 142.214 -0
vt -83.5361 0
v 83.5361 142.214 11.875
vt -83.5361 -11.875
vt -18.4831 -11.875
f 2/5/2 5/6/2 6/7/2 3/8/2 

usemtl Katherine_Sleeve
vn -1 0 -0
v 83.5361 19.2019 -0
v 83.5361 19.2019 11.875
vt 0.131944 0.126433
vt 0.131944 0.93639
f 5/2/3 7/1/3 8/9/3 6/10/3 

usemtl FrontColor
v 97.2783 19.2019 -0
vt -97.2783 0
v 97.2783 19.2019 11.875
vt -97.2783 -11.875
f 7/6/2 9/11/2 10/12/2 8/7/2 

usemtl Katherine_Sleeve
v 97.2783 158.042 -0
vt 0 1.04061
v 97.2783 158.042 11.875
vt -0.131944 1.04061
f 9/1/1 11/13/1 12/14/1 10/4/1 

usemtl FrontColor
vt 97.2783 0
vn 0 1 -0
v 7.55239 158.042 -0
vt 7.55239 0
v 7.55239 158.042 11.875
vt 7.55239 -11.875
vt 97.2783 -11.875
f 11/15/4 13/16/4 14/17/4 12/18/4 

usemtl Katherine_Sleeve
v 7.55239 19.2019 -0
v 7.55239 19.2019 11.875
vt 0.131944 1.04061
f 13/13/3 15/1/3 16/9/3 14/19/3 

usemtl FrontColor
vt -7.55239 0
vt -7.55239 -11.875
f 15/20/2 1/5/2 4/8/2 16/21/2 

usemtl Katherine_Sleeve
vt 0.0839154 0.126433
vn 0 0 1
vt 0.205368 0.126433
vt 0.205368 0.93639
vt 0.928179 0.93639
vt 0.928179 0.126433
vt 1.08087 0.126433
vt 1.08087 1.04061
vt 0.0839154 1.04061
f 16/22/5 4/23/5 3/24/5 6/25/5 8/26/5 10/27/5 12/28/5 14/29/5 

