# Alias OBJ Model File
# Exported from SketchUp, (c) 2000-2012 Trimble Navigation Limited
# File units = inches

mtllib fc6629ff-4559-4188-a4bb-7c14cf3fa9d8.mtl

g Mesh1 Model

usemtl Log_End
v 42.2727 50.3036 -0
vt 0.660511 0.785994
vn 0 0 1
v 31.089 56.9017 -0
vt 0.485765 0.889089
v 18.1629 55.666 -0
vt 0.283795 0.869781
v 8.43181 47.0685 -0
vt 0.131747 0.735446
v 5.61264 34.3933 -0
vt 0.0876975 0.537395
v 10.7822 22.4817 -0
vt 0.168472 0.351277
v 21.9659 15.8837 -0
vt 0.343218 0.248182
v 34.892 17.1193 -0
vt 0.545188 0.26749
v 44.6231 25.7168 -0
vt 0.697236 0.401825
v 47.4423 38.392 -0
vt 0.741285 0.599876
f 1/1/1 2/2/1 3/3/1 4/4/1 5/5/1 6/6/1 7/7/1 8/8/1 9/9/1 10/10/1 

usemtl Wood
vt 0 0.0166962
vn 0.50813 0.861281 -0
vt 0 -0.0847491
v 42.2727 50.3036 -128.563
vt 1.00439 -0.0847491
v 31.089 56.9017 -128.563
vt 1.00439 0.0166962
f 2/11/2 1/12/2 11/13/2 12/14/2 

vt 0 0.229028
vn 0.917334 0.39812 -0
vt 0 0.127583
v 47.4423 38.392 -128.563
vt 1.00439 0.127583
vt 1.00439 0.229028
f 1/15/3 10/16/3 13/17/3 11/18/3 

vt 0 0.373254
vn 0.976147 -0.21711 -0
vt 0 0.271808
v 44.6231 25.7168 -128.563
vt 1.00439 0.271808
vt 1.00439 0.373254
f 10/19/4 9/20/4 14/21/4 13/22/4 

vt 0 0.394283
vn 0.662106 -0.74941 -0
vt 0 0.292838
v 34.892 17.1193 -128.563
vt 1.00439 0.292838
vt 1.00439 0.394283
f 9/23/5 8/24/5 15/25/5 14/26/5 

vt 0 0.284084
vn 0.0951625 -0.995462 -0
vt 0 0.182639
v 21.9659 15.8837 -128.563
vt 1.00439 0.182639
vt 1.00439 0.284084
f 8/27/6 7/28/6 16/29/6 15/30/6 

vn -0.50813 -0.861281 -0
v 10.7822 22.4817 -128.563
vt -1.00439 0.0166962
vt -1.00439 -0.0847491
f 7/12/7 6/11/7 17/31/7 16/32/7 

vn -0.917334 -0.39812 -0
v 5.61264 34.3933 -128.563
vt -1.00439 0.229028
vt -1.00439 0.127583
f 6/16/8 5/15/8 18/33/8 17/34/8 

vn -0.976147 0.21711 -0
v 8.43181 47.0685 -128.563
vt -1.00439 0.373254
vt -1.00439 0.271808
f 5/20/9 4/19/9 19/35/9 18/36/9 

vn -0.662106 0.74941 -0
v 18.1629 55.666 -128.563
vt -1.00439 0.394283
vt -1.00439 0.292838
f 4/24/10 3/23/10 20/37/10 19/38/10 

vn -0.0951625 0.995462 -0
vt -1.00439 0.284084
vt -1.00439 0.182639
f 3/28/11 2/27/11 12/39/11 20/40/11 

usemtl Log_End
vt -0.485765 0.889089
vn 0 0 -1
vt -0.660511 0.785994
vt -0.741285 0.599876
vt -0.697236 0.401825
vt -0.545188 0.26749
vt -0.343218 0.248182
vt -0.168472 0.351277
vt -0.0876975 0.537395
vt -0.131747 0.735446
vt -0.283795 0.869781
f 12/41/12 11/42/12 13/43/12 14/44/12 15/45/12 16/46/12 17/47/12 18/48/12 19/49/12 20/50/12 

